<svg width="57" height="22" viewBox="0 0 57 22" fill="none" xmlns="http://www.w3.org/2000/svg">
<path d="M32.0872 22L44.5435 0L47.6576 5.5L44.5435 11H50.7716L56.9998 22H32.0872Z" fill="#4F4F4F" fill-opacity="0.81"/>
<path d="M22.7922 7.17377V5.46436H32.1366V7.17377H28.3627V16.4644H26.5662V7.17377H22.7922Z" fill="#4F4F4F" fill-opacity="0.81"/>
<path fill-rule="evenodd" clip-rule="evenodd" d="M19.6217 11.6426L22.3884 16.464H20.3661L17.6973 11.8036H15.2992V16.464H13.5026V5.47949H18.6445C20.3812 5.47949 21.8019 6.75198 21.8019 8.66072C21.8019 10.0788 21.0351 11.1751 19.6217 11.6426ZM18.4341 7.18119H15.2992V10.1402H18.4341C19.2235 10.1402 20.0353 9.58048 20.0353 8.66072C20.0353 7.79454 19.291 7.18119 18.4341 7.18119Z" fill="#4F4F4F" fill-opacity="0.81"/>
<path fill-rule="evenodd" clip-rule="evenodd" d="M9.56957 14.7659L10.5375 16.4756H12.4563L6.22803 5.47559L0 16.4756H1.91866L2.88655 14.7659H9.56957ZM8.60603 13.0645L6.22803 8.86422L3.85009 13.0645H8.60603Z" fill="#4F4F4F" fill-opacity="0.81"/>
</svg>
