<svg width="32" height="47" viewBox="0 0 32 47" fill="none" xmlns="http://www.w3.org/2000/svg">
<path d="M29.7324 45.75H30.4824V45V42.041V41.291H29.7324H8.98501L19.7766 29.0907L19.7768 29.0905C22.9154 25.5399 25.1397 22.5378 26.4122 20.0946C27.6999 17.6595 28.373 15.3613 28.373 13.2129C28.373 9.50932 27.2098 6.50304 24.8242 4.28569C22.4598 2.06969 19.2085 1.00781 15.1719 1.00781C12.4991 1.00781 10.0851 1.6006 7.94947 2.80292C5.83742 3.98343 4.19368 5.62632 3.03158 7.72226L3.03156 7.72225L3.02883 7.72726C1.89053 9.81759 1.32617 12.1298 1.32617 14.6484V15.3984H2.07617H5.5625H6.3125V14.6484C6.3125 11.8811 7.13675 9.69499 8.73948 8.02021C10.3573 6.34985 12.4771 5.49609 15.1719 5.49609C17.7969 5.49609 19.7654 6.24017 21.1747 7.64948L21.1781 7.65275C22.588 9.04531 23.3281 10.9656 23.3281 13.5059C23.3281 15.0843 22.8984 16.7345 22.0054 18.4646C21.1091 20.2013 19.4759 22.4521 17.0682 25.2289C17.0676 25.2297 17.0669 25.2305 17.0662 25.2313L2.45109 41.8087L2.26367 42.0213V42.3047V45V45.75H3.01367H29.7324Z" stroke="url(#paint0_linear)" stroke-width="1.5"/>
<defs>
<linearGradient id="paint0_linear" x1="-1" y1="-7.60452" x2="33.6898" y2="-7.22842" gradientUnits="userSpaceOnUse">
<stop stop-color="#EB5D56"/>
<stop offset="1" stop-color="#390A40"/>
</linearGradient>
</defs>
</svg>
