<svg width="105" height="90" viewBox="0 0 105 90" fill="none" xmlns="http://www.w3.org/2000/svg">
<path d="M76 29.954L78 30C78.006 29.74 78 28.502 78 28.24V11C78 10.7348 77.8946 10.4804 77.7071 10.2929C77.5196 10.1054 77.2652 10 77 10C68.7196 10.0055 60.6236 7.55523 53.736 2.959L52.557 2.169C52.3923 2.05851 52.1984 1.99951 52 1.99951C51.8016 1.99951 51.6077 2.05851 51.443 2.169L50.267 2.958C46.8375 5.23882 43.0924 7.00491 39.151 8.2C35.2107 9.39188 31.1166 9.99836 27 10C26.7348 10 26.4804 10.1054 26.2929 10.2929C26.1054 10.4804 26 10.7348 26 11V32H28V11.988C31.9766 11.897 35.9225 11.2676 39.73 10.117C43.8605 8.86323 47.7846 7.01016 51.377 4.617L52 4.2L52.626 4.619C59.5581 9.24794 67.6665 11.8042 76 11.988V28.24C76 28.486 76.009 29.708 76 29.954Z" fill="url(#paint0_linear)"/>
<path d="M60.1508 55.2878L51.9998 59.8538L43.8498 55.2878C41.0267 53.7065 38.4687 51.6928 36.2688 49.3198L34.7998 50.6798C37.1415 53.2057 39.8645 55.3491 42.8698 57.0318L51.5098 61.8718C51.6588 61.9558 51.8268 61.9999 51.9978 61.9999C52.1688 61.9999 52.3369 61.9558 52.4858 61.8718L61.1258 57.0318C63.9278 55.4647 66.4852 53.4958 68.7168 51.1878L67.2808 49.7998C65.185 51.9676 62.7828 53.8166 60.1508 55.2878Z" fill="url(#paint1_linear)"/>
<path d="M38.2852 48.5361C40.2152 50.5107 42.4199 52.1967 44.8312 53.5421L51.5112 57.2921C51.6605 57.3759 51.8289 57.4198 52.0002 57.4198C52.1714 57.4198 52.3398 57.3759 52.4892 57.2921L59.1682 53.5431C61.1571 52.4323 63.0073 51.0896 64.6802 49.5431L63.3202 48.0761C61.7632 49.5157 60.0412 50.7658 58.1902 51.8001L52.0002 55.2731L45.8082 51.8001C43.5639 50.5478 41.5119 48.9787 39.7152 47.1411L38.2852 48.5361Z" fill="url(#paint2_linear)"/>
<path d="M72 27.9998H73.9999C74.0073 27.7378 73.9999 28.2115 73.9999 27.9488V14.8298C74.0008 14.5785 73.9071 14.3361 73.7374 14.1508C73.5676 13.9655 73.3343 13.8509 73.0839 13.8298C65.7827 13.2032 58.7366 10.8421 52.5319 6.94281C52.3726 6.84267 52.1882 6.78955 51.9999 6.78955C51.8117 6.78955 51.6273 6.84267 51.4679 6.94281C45.2637 10.8435 38.2176 13.206 30.9159 13.8338C30.6655 13.8549 30.4323 13.9695 30.2625 14.1548C30.0928 14.3401 29.9991 14.5825 29.9999 14.8338V28.2398C29.9999 28.5031 29.9894 29.7384 29.9967 29.9998H31.9967C31.9894 29.7558 31.9999 28.4845 31.9999 28.2398V15.7398C39.0863 14.9928 45.9179 12.6793 51.9999 8.96681C58.082 12.6793 64.9136 14.9928 71.9999 15.7398L72 27.9998C72 28.2451 72.0073 27.7564 72 27.9998Z" fill="url(#paint3_linear)"/>
<path d="M53 12H51V14H53V12Z" fill="url(#paint4_linear)"/>
<path d="M36 17H34V19H36V17Z" fill="url(#paint5_linear)"/>
<path d="M70 17H68V19H70V17Z" fill="url(#paint6_linear)"/>
<path d="M53 50H51V52H53V50Z" fill="url(#paint7_linear)"/>
<path d="M45 15H43V17H45V15Z" fill="url(#paint8_linear)"/>
<path d="M61 15H59V17H61V15Z" fill="url(#paint9_linear)"/>
<path d="M46 47H44V49H46V47Z" fill="url(#paint10_linear)"/>
<path d="M60 47H58V49H60V47Z" fill="url(#paint11_linear)"/>
<path d="M46.9375 34.3374H51.0873V36.4127H46.9375V34.3374Z" fill="url(#paint12_linear)"/>
<path d="M82.3596 31.2353L75.3121 30.2289C74.0271 29.4395 72.6935 28.7328 71.3185 28.1126C66.7777 26.0558 61.8494 24.9945 56.8642 25H55.6399C49.7567 25.0042 43.9676 26.4805 38.8004 29.2942L35.2437 31.2345C31.0803 31.2813 26.9972 32.3887 23.3801 34.4505C21.9102 35.2935 21.0025 36.8576 21 38.5518V44.7123C21 45.2856 21.4644 45.75 22.0377 45.75H25.5213C26.6544 48.9825 30.1934 50.6846 33.4258 49.5516C35.2053 48.928 36.6039 47.529 37.2274 45.75H64.9464C66.0795 48.9825 69.6184 50.6846 72.8509 49.5516C74.6299 48.928 76.0289 47.529 76.6525 45.75H77.0248C77.157 45.75 77.2878 45.7251 77.4107 45.6761L80.7711 44.3278C82.2723 43.7334 83.2555 42.2803 83.25 40.6664V32.2624C83.25 31.7466 82.8705 31.3088 82.3596 31.2353ZM35.4408 44.5051C34.9819 46.7505 32.7897 48.199 30.5442 47.7401C28.2983 47.2812 26.8499 45.0889 27.3088 42.843C27.7681 40.5976 29.9603 39.1491 32.2058 39.608C34.138 40.0027 35.5252 41.7028 35.5248 43.6751C35.5248 43.9537 35.4965 44.2319 35.4408 44.5051ZM54.1999 43.6751H37.5997C37.5997 40.237 34.8131 37.4499 31.375 37.4499C27.9369 37.4499 25.1498 40.237 25.1498 43.6751H23.0749V38.5518C23.0762 37.6015 23.5853 36.7238 24.4102 36.2518C27.7959 34.3188 31.6266 33.3014 35.5248 33.3001H54.1999V43.6751ZM54.1999 31.2252H39.594L39.7941 31.1158C44.2298 28.7053 49.1568 27.3388 54.1999 27.1205V31.2252ZM56.2748 27.0749H56.862C61.0431 27.0703 65.1862 27.864 69.0696 29.4137L67.2581 31.2252H56.2748V27.0749ZM74.8659 44.5051C74.407 46.7505 72.2147 48.199 69.9688 47.7401C67.7234 47.2812 66.2749 45.0889 66.7338 42.843C67.1927 40.5976 69.3854 39.1491 71.6309 39.608C73.5631 40.0027 74.9503 41.7028 74.9499 43.6751C74.9499 43.9537 74.9216 44.2319 74.8659 44.5051ZM81.1751 34.3373H78.0625V36.4127H81.1751V40.6664C81.1776 41.4309 80.7115 42.119 80.0006 42.3998L77.0248 43.5949C77.0248 43.4995 77.0126 43.4049 77.0062 43.3095C76.9999 43.2141 76.9978 43.1022 76.9877 42.9984C76.9771 42.8945 76.9564 42.7907 76.94 42.6872C76.9231 42.5834 76.9108 42.4795 76.8901 42.3854C76.8695 42.2908 76.8391 42.1861 76.812 42.0874C76.785 41.989 76.7643 41.8894 76.7331 41.7927C76.7023 41.6964 76.6647 41.604 76.6297 41.5094C76.5942 41.4153 76.5621 41.3178 76.5258 41.224C76.4895 41.1307 76.4405 41.0459 76.3971 40.9577C76.3536 40.8694 76.3109 40.7727 76.2624 40.6837C76.2134 40.5946 76.1585 40.5186 76.1117 40.4359C76.0652 40.3527 76.0083 40.2581 75.9492 40.1733C75.8896 40.088 75.8347 40.0209 75.7778 39.944C75.7208 39.8672 75.6562 39.7769 75.5899 39.6971C75.5236 39.6173 75.4616 39.5548 75.397 39.4894C75.3328 39.4244 75.261 39.3361 75.1897 39.2635C75.1179 39.1909 75.0474 39.1335 74.9761 39.0693C74.9043 39.0052 74.8275 38.9292 74.7485 38.8616C74.67 38.7945 74.5898 38.7426 74.5113 38.6835C74.4323 38.6244 74.3534 38.5611 74.2706 38.5058C74.1875 38.4509 74.0942 38.4023 74.0051 38.3441C73.9156 38.2858 73.843 38.2402 73.759 38.1959C73.675 38.1511 73.5703 38.1043 73.4749 38.0587C73.3795 38.0131 73.3047 37.9726 73.2165 37.9354C73.1283 37.8978 73.0088 37.8586 72.9054 37.8214C72.8015 37.7839 72.734 37.7547 72.6458 37.7269C72.5275 37.6906 72.4064 37.6644 72.2856 37.6344C72.2067 37.6158 72.1311 37.5909 72.0513 37.5745C71.9239 37.5483 71.793 37.5339 71.6634 37.5149C71.5866 37.5048 71.5131 37.4879 71.4363 37.4807C71.2286 37.4601 71.0213 37.4487 70.8034 37.4487C67.3666 37.452 64.5817 40.237 64.5783 43.6738H56.2752V33.2997H67.6875C67.9627 33.2997 68.2266 33.1903 68.4208 32.9957L71.1112 30.3053C72.2405 30.8427 73.3385 31.4434 74.4002 32.1045C74.5227 32.181 74.6595 32.2312 74.8026 32.2519L81.1751 33.1616V34.3373Z" fill="url(#paint13_linear)"/>
<path d="M7.34766 83.6602H3.02344L2.03027 87H0.37793L4.5 74.2031H5.87988L10.0107 87H8.3584L7.34766 83.6602ZM3.44531 82.2715H6.93457L5.18555 76.4531L3.44531 82.2715ZM11.751 87V74.2031H15.3984C16.5645 74.2031 17.4404 74.4873 18.0264 75.0557C18.6182 75.624 18.9141 76.4766 18.9141 77.6133C18.9141 78.2109 18.7646 78.7383 18.4658 79.1953C18.167 79.6523 17.7627 80.0068 17.2529 80.2588C17.8389 80.4346 18.3018 80.7949 18.6416 81.3398C18.9873 81.8848 19.1602 82.541 19.1602 83.3086C19.1602 84.457 18.8438 85.3594 18.2109 86.0156C17.584 86.6719 16.6875 87 15.5215 87H11.751ZM13.3594 81.0146V85.6201H15.5566C16.166 85.6201 16.6494 85.4209 17.0068 85.0225C17.3643 84.6182 17.543 84.0527 17.543 83.3262C17.543 81.7852 16.8926 81.0146 15.5918 81.0146H13.3594ZM13.3594 79.6611H15.4248C15.9814 79.6611 16.4297 79.4736 16.7695 79.0986C17.1152 78.7236 17.2881 78.2256 17.2881 77.6045C17.2881 76.9014 17.1328 76.3916 16.8223 76.0752C16.5117 75.7529 16.0371 75.5918 15.3984 75.5918H13.3594V79.6611ZM28.8105 75.5918H25.4443V87H23.8359V75.5918H20.4785V74.2031H28.8105V75.5918ZM38.7773 81.7266C38.7773 83.4727 38.4053 84.8174 37.6611 85.7607C36.917 86.7041 35.8594 87.1758 34.4883 87.1758C33.1699 87.1758 32.127 86.7188 31.3594 85.8047C30.5977 84.8848 30.2021 83.5869 30.1729 81.9111V79.5029C30.1729 77.792 30.5508 76.4531 31.3066 75.4863C32.0625 74.5137 33.1172 74.0273 34.4707 74.0273C35.8184 74.0273 36.8672 74.4932 37.6172 75.4248C38.373 76.3506 38.7598 77.6748 38.7773 79.3975V81.7266ZM37.1689 79.4854C37.1689 78.1318 36.9463 77.127 36.501 76.4707C36.0615 75.8086 35.3848 75.4775 34.4707 75.4775C33.5859 75.4775 32.915 75.8115 32.458 76.4795C32.0068 77.1475 31.7783 78.1318 31.7725 79.4326V81.7266C31.7725 83.0332 31.998 84.0293 32.4492 84.7148C32.9062 85.4004 33.5859 85.7432 34.4883 85.7432C35.3906 85.7432 36.0586 85.4268 36.4922 84.7939C36.9258 84.1611 37.1514 83.1914 37.1689 81.8848V79.4854ZM46.6436 77.6396C46.6436 76.9541 46.4473 76.4121 46.0547 76.0137C45.668 75.6152 45.1289 75.416 44.4375 75.416C43.8516 75.416 43.3623 75.6211 42.9697 76.0312C42.583 76.4414 42.3896 76.9541 42.3896 77.5693H40.7812C40.7812 76.5205 41.1299 75.668 41.8271 75.0117C42.5244 74.3555 43.3945 74.0273 44.4375 74.0273C45.6504 74.0273 46.5908 74.3496 47.2588 74.9941C47.9268 75.6387 48.2607 76.5293 48.2607 77.666C48.2607 78.2578 48.1055 78.7969 47.7949 79.2832C47.4844 79.7695 47.0566 80.1533 46.5117 80.4346C47.7832 80.9443 48.4189 81.9434 48.4189 83.4316C48.4189 84.5918 48.0527 85.5059 47.3203 86.1738C46.5938 86.8418 45.6328 87.1758 44.4375 87.1758C43.9219 87.1758 43.4238 87.0938 42.9434 86.9297C42.4688 86.7598 42.0527 86.5049 41.6953 86.165C40.9805 85.4912 40.623 84.5859 40.623 83.4492H42.2314C42.2314 84.1172 42.4365 84.6768 42.8467 85.1279C43.2627 85.5791 43.793 85.8047 44.4375 85.8047C45.1582 85.8047 45.7324 85.5938 46.1602 85.1719C46.5938 84.7441 46.8105 84.1758 46.8105 83.4668C46.8105 81.9785 46.0986 81.2139 44.6748 81.1729H43.3564V79.7842H44.5605C45.2402 79.7842 45.7559 79.5996 46.1074 79.2305C46.4648 78.8613 46.6436 78.3311 46.6436 77.6396ZM56.5488 83.6602H52.2246L51.2314 87H49.5791L53.7012 74.2031H55.0811L59.2119 87H57.5596L56.5488 83.6602ZM52.6465 82.2715H56.1357L54.3867 76.4531L52.6465 82.2715ZM62.6484 74.2031V85.6201H66.1201V74.2031H67.7197V85.6201H71.165V74.2031H72.7822V85.6729H73.8896L73.7314 90.085H72.3604V87H61.0312V74.2031H62.6484ZM82.7754 74.2031H84.3838V87H82.7754V77.1387L77.792 87H76.1748V74.2031H77.792V84.0645L82.7754 74.2031ZM94.4648 75.5918H91.0986V87H89.4902V75.5918H86.1328V74.2031H94.4648V75.5918ZM101.619 83.6602H97.2949L96.3018 87H94.6494L98.7715 74.2031H100.151L104.282 87H102.63L101.619 83.6602ZM97.7168 82.2715H101.206L99.457 76.4531L97.7168 82.2715Z" fill="url(#paint14_linear)"/>
<defs>
<linearGradient id="paint0_linear" x1="26" y1="2.1849" x2="78.9976" y2="4.05971" gradientUnits="userSpaceOnUse">
<stop stop-color="#EB5D56"/>
<stop offset="1" stop-color="#390A40"/>
</linearGradient>
<linearGradient id="paint1_linear" x1="34.7998" y1="49.3982" x2="69.3062" y2="51.2818" gradientUnits="userSpaceOnUse">
<stop stop-color="#EB5D56"/>
<stop offset="1" stop-color="#390A40"/>
</linearGradient>
<linearGradient id="paint2_linear" x1="38.2852" y1="47.2046" x2="65.1451" y2="48.6123" gradientUnits="userSpaceOnUse">
<stop stop-color="#EB5D56"/>
<stop offset="1" stop-color="#390A40"/>
</linearGradient>
<linearGradient id="paint3_linear" x1="29.9941" y1="6.93298" x2="74.8342" y2="8.66812" gradientUnits="userSpaceOnUse">
<stop stop-color="#EB5D56"/>
<stop offset="1" stop-color="#390A40"/>
</linearGradient>
<linearGradient id="paint4_linear" x1="51" y1="12.0124" x2="53.04" y2="12.054" gradientUnits="userSpaceOnUse">
<stop stop-color="#EB5D56"/>
<stop offset="1" stop-color="#390A40"/>
</linearGradient>
<linearGradient id="paint5_linear" x1="34" y1="17.0124" x2="36.04" y2="17.054" gradientUnits="userSpaceOnUse">
<stop stop-color="#EB5D56"/>
<stop offset="1" stop-color="#390A40"/>
</linearGradient>
<linearGradient id="paint6_linear" x1="68" y1="17.0124" x2="70.04" y2="17.054" gradientUnits="userSpaceOnUse">
<stop stop-color="#EB5D56"/>
<stop offset="1" stop-color="#390A40"/>
</linearGradient>
<linearGradient id="paint7_linear" x1="51" y1="50.0124" x2="53.04" y2="50.054" gradientUnits="userSpaceOnUse">
<stop stop-color="#EB5D56"/>
<stop offset="1" stop-color="#390A40"/>
</linearGradient>
<linearGradient id="paint8_linear" x1="43" y1="15.0124" x2="45.04" y2="15.054" gradientUnits="userSpaceOnUse">
<stop stop-color="#EB5D56"/>
<stop offset="1" stop-color="#390A40"/>
</linearGradient>
<linearGradient id="paint9_linear" x1="59" y1="15.0124" x2="61.04" y2="15.054" gradientUnits="userSpaceOnUse">
<stop stop-color="#EB5D56"/>
<stop offset="1" stop-color="#390A40"/>
</linearGradient>
<linearGradient id="paint10_linear" x1="44" y1="47.0124" x2="46.04" y2="47.054" gradientUnits="userSpaceOnUse">
<stop stop-color="#EB5D56"/>
<stop offset="1" stop-color="#390A40"/>
</linearGradient>
<linearGradient id="paint11_linear" x1="58" y1="47.0124" x2="60.04" y2="47.054" gradientUnits="userSpaceOnUse">
<stop stop-color="#EB5D56"/>
<stop offset="1" stop-color="#390A40"/>
</linearGradient>
<linearGradient id="paint12_linear" x1="46.9375" y1="34.3502" x2="51.165" y2="34.5227" gradientUnits="userSpaceOnUse">
<stop stop-color="#EB5D56"/>
<stop offset="1" stop-color="#390A40"/>
</linearGradient>
<linearGradient id="paint13_linear" x1="21" y1="25.1539" x2="84.3555" y2="28.386" gradientUnits="userSpaceOnUse">
<stop stop-color="#EB5D56"/>
<stop offset="1" stop-color="#390A40"/>
</linearGradient>
<linearGradient id="paint14_linear" x1="6.27168e-07" y1="72.1112" x2="105.646" y2="84.6881" gradientUnits="userSpaceOnUse">
<stop stop-color="#EB5D56"/>
<stop offset="1" stop-color="#390A40"/>
</linearGradient>
</defs>
</svg>
