<svg width="31" height="48" viewBox="0 0 31 48" fill="none" xmlns="http://www.w3.org/2000/svg">
<path d="M10.8066 21.0176H10.0566V21.7676V24.7559V25.5059H10.8066H14.3223C17.7874 25.5059 20.2722 26.2412 21.9006 27.5894L21.9036 27.5919C23.5303 28.9244 24.3828 30.868 24.3828 33.5449C24.3828 36.346 23.5809 38.3768 22.0766 39.7602C20.5755 41.1391 18.4257 41.877 15.5234 41.877C12.7078 41.877 10.4652 41.0759 8.73107 39.5214C7.00467 37.9545 6.13672 35.945 6.13672 33.4277V32.6777H5.38672H1.87109H1.12109V33.4277C1.12109 35.9736 1.72847 38.2441 2.96437 40.2132L2.96432 40.2132L2.96939 40.221C4.22235 42.1631 5.973 43.6679 8.19612 44.7383L8.19855 44.7394C10.4359 45.8068 12.8813 46.3359 15.5234 46.3359C19.6535 46.3359 23.0352 45.1779 25.5863 42.7941C28.1399 40.4079 29.3984 37.2603 29.3984 33.4277C29.3984 30.7829 28.6721 28.4709 27.1957 26.5298C26.0511 25.0097 24.503 23.855 22.5818 23.0498C24.1594 22.2014 25.4682 21.0957 26.4942 19.7277C27.894 17.8681 28.6074 15.8173 28.6074 13.5938C28.6074 9.7598 27.4386 6.65601 25.0334 4.37741C22.6337 2.10402 19.3837 1.00781 15.377 1.00781C12.8676 1.00781 10.5628 1.52893 8.47639 2.58246C6.38278 3.63963 4.7334 5.15067 3.54516 7.1096C2.35754 9.04793 1.76562 11.1956 1.76562 13.5352V14.2852H2.51562H6.03125H6.78125V13.5352C6.78125 11.0812 7.58141 9.17165 9.14687 7.72931L9.14713 7.72907C10.7465 6.25411 12.802 5.49609 15.377 5.49609C18.1355 5.49609 20.1358 6.22968 21.497 7.59088C22.8658 8.95962 23.5918 10.888 23.5918 13.4766C23.5918 14.968 23.2254 16.2604 22.5091 17.3786L22.5075 17.3812C21.8124 18.476 20.7861 19.3644 19.3917 20.0351C18.0068 20.6819 16.3626 21.0176 14.4395 21.0176H10.8066Z" stroke="url(#paint0_linear)" stroke-width="1.5"/>
<defs>
<linearGradient id="paint0_linear" x1="-1" y1="-7.60454" x2="33.6898" y2="-7.22844" gradientUnits="userSpaceOnUse">
<stop stop-color="#EB5D56"/>
<stop offset="1" stop-color="#390A40"/>
</linearGradient>
</defs>
</svg>
