<svg width="50" height="50" viewBox="0 0 50 50" fill="none" xmlns="http://www.w3.org/2000/svg">
<path d="M25.6528 27.2878C25.5603 27.2678 25.4654 27.2642 25.3717 27.2782C24.4326 27.1689 23.7242 26.3744 23.7226 25.4293C23.7226 24.9764 23.3554 24.6091 22.9025 24.6091C22.4495 24.6091 22.0823 24.9764 22.0823 25.4293C22.0847 27.0075 23.1403 28.3899 24.6621 28.8076V29.6277C24.6621 30.0806 25.0293 30.4479 25.4822 30.4479C25.9351 30.4479 26.3024 30.0806 26.3024 29.6277V28.8572C28.0588 28.4896 29.2526 26.8537 29.068 25.0689C28.8829 23.284 27.3792 21.9276 25.5847 21.9272C24.5564 21.9272 23.7226 21.0935 23.7226 20.0651C23.7226 19.0367 24.5564 18.203 25.5847 18.203C26.6131 18.203 27.4469 19.0367 27.4469 20.0651C27.4469 20.518 27.8141 20.8852 28.267 20.8852C28.72 20.8852 29.0872 20.518 29.0872 20.0651C29.0848 18.408 27.9238 16.9787 26.3024 16.6367V15.8903C26.3024 15.4374 25.9351 15.0701 25.4822 15.0701C25.0293 15.0701 24.6621 15.4374 24.6621 15.8903V16.6868C22.9697 17.1489 21.8805 18.792 22.1135 20.5308C22.3466 22.2696 23.8303 23.5675 25.5847 23.5671C26.5995 23.5671 27.4273 24.3797 27.4457 25.394C27.4645 26.4084 26.6668 27.251 25.6528 27.2878Z" fill="url(#paint0_linear)"/>
<path d="M13.6918 22.8103C13.6918 29.3786 19.0163 34.7032 25.5847 34.7032C32.153 34.7032 37.4776 29.3786 37.4776 22.8103C37.4776 16.2419 32.153 10.9174 25.5847 10.9174C19.0195 10.9246 13.6994 16.2451 13.6918 22.8103ZM25.5847 12.5577C31.2472 12.5577 35.8373 17.1477 35.8373 22.8103C35.8373 28.4728 31.2472 33.0629 25.5847 33.0629C19.9222 33.0629 15.3321 28.4728 15.3321 22.8103C15.3385 17.1505 19.925 12.5641 25.5847 12.5577Z" fill="url(#paint1_linear)"/>
<path d="M41.5205 36.7251L35.096 39.7606C34.2089 38.1107 32.5074 37.0607 30.6348 37.0078L24.704 36.8448C23.7649 36.818 22.8435 36.5801 22.0085 36.1488L21.405 35.8361C18.315 34.2254 14.632 34.2294 11.5452 35.8465L11.5829 34.4793C11.5953 34.0264 11.2385 33.6491 10.7856 33.6367L4.28208 33.4577C3.82916 33.4453 3.45233 33.8021 3.43991 34.255L3.04706 48.5267C3.03465 48.9796 3.39146 49.3568 3.84438 49.3692L10.3479 49.5482H10.3703C10.8148 49.5482 11.1784 49.1946 11.1904 48.7505L11.2093 48.0677L12.8988 47.1631C13.562 46.8063 14.3373 46.7214 15.0617 46.9264L25.1509 49.7581C25.1685 49.7633 25.1861 49.7673 25.2042 49.7713C25.9334 49.9239 26.6767 50.0004 27.4215 50C28.9993 50.0008 30.5587 49.6608 31.9928 49.0024C32.028 48.9864 32.0621 48.9676 32.0945 48.9464L46.7229 39.4843C47.0874 39.2484 47.2051 38.7698 46.9916 38.3918C45.9056 36.4648 43.4968 35.7307 41.5205 36.7251ZM4.70937 47.7522L5.05697 35.12L9.92057 35.2538L9.57297 47.8863L4.70937 47.7522ZM31.2539 47.5375C29.4723 48.3417 27.4824 48.5635 25.5674 48.1723L15.5054 45.3478C14.3729 45.0278 13.1607 45.1604 12.1247 45.7174L11.2613 46.18L11.4924 37.7811C14.2283 35.9614 17.7372 35.7744 20.6509 37.2925L21.2544 37.6053C22.3092 38.1499 23.4726 38.4503 24.6591 38.4847L30.5904 38.6477C32.2563 38.6957 33.6711 39.8819 34.0091 41.5142L25.1745 41.2703C24.7216 41.2579 24.3448 41.6151 24.332 42.0676C24.3195 42.5206 24.6768 42.8978 25.1293 42.9102L34.8789 43.1785H34.9017C35.3458 43.1781 35.7091 42.8245 35.7211 42.3808C35.7311 42.0244 35.7047 41.6676 35.6418 41.3168L42.2314 38.2032C42.2378 38.2004 42.2442 38.1972 42.2506 38.194C43.1853 37.721 44.3154 37.8792 45.0843 38.5908L31.2539 47.5375Z" fill="url(#paint2_linear)"/>
<path d="M26.4048 8.61152V0.820144C26.4048 0.367223 26.0376 0 25.5847 0C25.1317 0 24.7645 0.367223 24.7645 0.820144V8.61152C24.7645 9.06444 25.1317 9.43166 25.5847 9.43166C26.0376 9.43166 26.4048 9.06444 26.4048 8.61152Z" fill="url(#paint3_linear)"/>
<path d="M32.5558 8.6115V4.92085C32.5558 4.46793 32.1886 4.10071 31.7357 4.10071C31.2828 4.10071 30.9155 4.46793 30.9155 4.92085V8.6115C30.9155 9.06442 31.2828 9.43165 31.7357 9.43165C32.1886 9.43165 32.5558 9.06442 32.5558 8.6115Z" fill="url(#paint4_linear)"/>
<path d="M20.2538 8.6115V4.92085C20.2538 4.46793 19.8865 4.10071 19.4336 4.10071C18.9807 4.10071 18.6135 4.46793 18.6135 4.92085V8.6115C18.6135 9.06442 18.9807 9.43165 19.4336 9.43165C19.8865 9.43165 20.2538 9.06442 20.2538 8.6115Z" fill="url(#paint5_linear)"/>
<defs>
<linearGradient id="paint0_linear" x1="22.0822" y1="15.1652" x2="29.2295" y2="15.2316" gradientUnits="userSpaceOnUse">
<stop stop-color="#EB5D56"/>
<stop offset="1" stop-color="#390A40"/>
</linearGradient>
<linearGradient id="paint1_linear" x1="13.6918" y1="11.0644" x2="37.9529" y2="11.5595" gradientUnits="userSpaceOnUse">
<stop stop-color="#EB5D56"/>
<stop offset="1" stop-color="#390A40"/>
</linearGradient>
<linearGradient id="paint2_linear" x1="3.04675" y1="33.5596" x2="47.8645" y2="35.9952" gradientUnits="userSpaceOnUse">
<stop stop-color="#EB5D56"/>
<stop offset="1" stop-color="#390A40"/>
</linearGradient>
<linearGradient id="paint3_linear" x1="24.7645" y1="0.0582831" x2="26.4383" y2="0.0642236" gradientUnits="userSpaceOnUse">
<stop stop-color="#EB5D56"/>
<stop offset="1" stop-color="#390A40"/>
</linearGradient>
<linearGradient id="paint4_linear" x1="30.9155" y1="4.13365" x2="32.5892" y2="4.14416" gradientUnits="userSpaceOnUse">
<stop stop-color="#EB5D56"/>
<stop offset="1" stop-color="#390A40"/>
</linearGradient>
<linearGradient id="paint5_linear" x1="18.6135" y1="4.13365" x2="20.2872" y2="4.14416" gradientUnits="userSpaceOnUse">
<stop stop-color="#EB5D56"/>
<stop offset="1" stop-color="#390A40"/>
</linearGradient>
</defs>
</svg>
