<svg width="179" height="64" viewBox="0 0 179 64" fill="none" xmlns="http://www.w3.org/2000/svg">
<path d="M56 29.954L58 30C58.006 29.74 58 28.502 58 28.24V11C58 10.7348 57.8946 10.4804 57.7071 10.2929C57.5196 10.1054 57.2652 10 57 10C48.7196 10.0055 40.6236 7.55523 33.736 2.959L32.557 2.169C32.3923 2.05851 32.1984 1.99951 32 1.99951C31.8016 1.99951 31.6077 2.05851 31.443 2.169L30.267 2.958C26.8375 5.23882 23.0924 7.00491 19.151 8.2C15.2107 9.39188 11.1166 9.99836 7 10C6.73478 10 6.48043 10.1054 6.29289 10.2929C6.10536 10.4804 6 10.7348 6 11V32H8V11.988C11.9766 11.897 15.9225 11.2676 19.73 10.117C23.8605 8.86323 27.7846 7.01016 31.377 4.617L32 4.2L32.626 4.619C39.5581 9.24794 47.6665 11.8042 56 11.988V28.24C56 28.486 56.009 29.708 56 29.954Z" fill="url(#paint0_linear)"/>
<path d="M40.151 55.2879L32 59.854L23.85 55.2879C21.0269 53.7066 18.4689 51.6929 16.269 49.3199L14.8 50.6799C17.1417 53.2058 19.8647 55.3492 22.87 57.032L31.51 61.872C31.6589 61.9559 31.827 62 31.998 62C32.169 62 32.337 61.9559 32.486 61.872L41.126 57.032C43.9279 55.4648 46.4854 53.4959 48.717 51.1879L47.281 49.7999C45.1852 51.9678 42.783 53.8167 40.151 55.2879Z" fill="url(#paint1_linear)"/>
<path d="M18.285 48.536C20.2151 50.5106 22.4198 52.1966 24.831 53.542L31.511 57.292C31.6604 57.3757 31.8288 57.4197 32 57.4197C32.1713 57.4197 32.3397 57.3757 32.489 57.292L39.168 53.543C41.157 52.4321 43.0072 51.0894 44.68 49.543L43.32 48.076C41.7631 49.5156 40.0411 50.7656 38.19 51.8L32 55.273L25.808 51.8C23.5638 50.5477 21.5117 48.9786 19.715 47.141L18.285 48.536Z" fill="url(#paint2_linear)"/>
<path d="M52 28H54C54.0073 27.738 54 28.2117 54 27.949V14.8301C54.0009 14.5788 53.9071 14.3364 53.7374 14.1511C53.5677 13.9658 53.3344 13.8512 53.084 13.8301C45.7827 13.2035 38.7366 10.8423 32.532 6.94305C32.3726 6.84292 32.1882 6.78979 32 6.78979C31.8118 6.78979 31.6274 6.84292 31.468 6.94305C25.2638 10.8437 18.2176 13.2062 10.916 13.8341C10.6656 13.8552 10.4323 13.9698 10.2626 14.1551C10.0929 14.3404 9.99912 14.5828 10 14.8341V28.2401C10 28.5034 9.98946 29.7387 9.99679 30H11.9968C11.9894 29.756 12 28.4847 12 28.2401V15.7401C19.0864 14.993 25.9179 12.6795 32 8.96705C38.0821 12.6795 44.9137 14.993 52 15.7401L52 28C52 28.2453 52.0074 27.7567 52 28Z" fill="url(#paint3_linear)"/>
<path d="M33 12H31V14H33V12Z" fill="url(#paint4_linear)"/>
<path d="M16 17H14V19H16V17Z" fill="url(#paint5_linear)"/>
<path d="M50 17H48V19H50V17Z" fill="url(#paint6_linear)"/>
<path d="M33 50H31V52H33V50Z" fill="url(#paint7_linear)"/>
<path d="M25 15H23V17H25V15Z" fill="url(#paint8_linear)"/>
<path d="M41 15H39V17H41V15Z" fill="url(#paint9_linear)"/>
<path d="M26 47H24V49H26V47Z" fill="url(#paint10_linear)"/>
<path d="M40 47H38V49H40V47Z" fill="url(#paint11_linear)"/>
<path d="M26.9375 34.3373H31.0873V36.4126H26.9375V34.3373Z" fill="url(#paint12_linear)"/>
<path d="M62.3596 31.2353L55.3121 30.2289C54.0271 29.4395 52.6935 28.7328 51.3185 28.1126C46.7777 26.0558 41.8494 24.9945 36.8642 25H35.6399C29.7567 25.0042 23.9676 26.4805 18.8004 29.2942L15.2437 31.2345C11.0803 31.2813 6.9972 32.3887 3.38014 34.4505C1.91018 35.2935 1.00253 36.8576 1 38.5518V44.7123C1 45.2856 1.46438 45.75 2.03767 45.75H5.52133C6.65441 48.9825 10.1934 50.6846 13.4258 49.5516C15.2053 48.928 16.6039 47.529 17.2274 45.75H44.9464C46.0795 48.9825 49.6184 50.6846 52.8509 49.5516C54.6299 48.928 56.0289 47.529 56.6525 45.75H57.0248C57.157 45.75 57.2878 45.7251 57.4107 45.6761L60.7711 44.3278C62.2723 43.7334 63.2555 42.2803 63.25 40.6664V32.2624C63.25 31.7466 62.8705 31.3088 62.3596 31.2353ZM15.4408 44.5051C14.9819 46.7505 12.7897 48.199 10.5442 47.7401C8.2983 47.2812 6.84987 45.0889 7.30875 42.843C7.76806 40.5976 9.96034 39.1491 12.2058 39.608C14.138 40.0027 15.5252 41.7028 15.5248 43.6751C15.5248 43.9537 15.4965 44.2319 15.4408 44.5051ZM34.1999 43.6751H17.5997C17.5997 40.237 14.8131 37.4499 11.375 37.4499C7.93693 37.4499 5.14983 40.237 5.14983 43.6751H3.07491V38.5518C3.07618 37.6015 3.58531 36.7238 4.41021 36.2518C7.79593 34.3188 11.6266 33.3014 15.5248 33.3001H34.1999V43.6751ZM34.1999 31.2252H19.594L19.7941 31.1158C24.2298 28.7053 29.1568 27.3388 34.1999 27.1205V31.2252ZM36.2748 27.0749H36.862C41.0431 27.0703 45.1862 27.864 49.0696 29.4137L47.2581 31.2252H36.2748V27.0749ZM54.8659 44.5051C54.407 46.7505 52.2147 48.199 49.9688 47.7401C47.7234 47.2812 46.2749 45.0889 46.7338 42.843C47.1927 40.5976 49.3854 39.1491 51.6309 39.608C53.5631 40.0027 54.9503 41.7028 54.9499 43.6751C54.9499 43.9537 54.9216 44.2319 54.8659 44.5051ZM61.1751 34.3373H58.0625V36.4127H61.1751V40.6664C61.1776 41.4309 60.7115 42.119 60.0006 42.3998L57.0248 43.5949C57.0248 43.4995 57.0126 43.4049 57.0062 43.3095C56.9999 43.2141 56.9978 43.1022 56.9877 42.9984C56.9771 42.8945 56.9564 42.7907 56.94 42.6872C56.9231 42.5834 56.9108 42.4795 56.8901 42.3854C56.8695 42.2908 56.8391 42.1861 56.812 42.0874C56.785 41.989 56.7643 41.8894 56.7331 41.7927C56.7023 41.6964 56.6647 41.604 56.6297 41.5094C56.5942 41.4153 56.5621 41.3178 56.5258 41.224C56.4895 41.1307 56.4405 41.0459 56.3971 40.9577C56.3536 40.8694 56.3109 40.7727 56.2624 40.6837C56.2134 40.5946 56.1585 40.5186 56.1117 40.4359C56.0652 40.3527 56.0083 40.2581 55.9492 40.1733C55.8896 40.088 55.8347 40.0209 55.7778 39.944C55.7208 39.8672 55.6562 39.7769 55.5899 39.6971C55.5236 39.6173 55.4616 39.5548 55.397 39.4894C55.3328 39.4244 55.261 39.3361 55.1897 39.2635C55.1179 39.1909 55.0474 39.1335 54.9761 39.0693C54.9043 39.0052 54.8275 38.9292 54.7485 38.8616C54.67 38.7945 54.5898 38.7426 54.5113 38.6835C54.4323 38.6244 54.3534 38.5611 54.2706 38.5058C54.1875 38.4509 54.0942 38.4023 54.0051 38.3441C53.9156 38.2858 53.843 38.2402 53.759 38.1959C53.675 38.1511 53.5703 38.1043 53.4749 38.0587C53.3795 38.0131 53.3047 37.9726 53.2165 37.9354C53.1283 37.8978 53.0088 37.8586 52.9054 37.8214C52.8015 37.7839 52.734 37.7547 52.6458 37.7269C52.5275 37.6906 52.4064 37.6644 52.2856 37.6344C52.2067 37.6158 52.1311 37.5909 52.0513 37.5745C51.9239 37.5483 51.793 37.5339 51.6634 37.5149C51.5866 37.5048 51.5131 37.4879 51.4363 37.4807C51.2286 37.4601 51.0213 37.4487 50.8034 37.4487C47.3666 37.452 44.5817 40.237 44.5783 43.6738H36.2752V33.2997H47.6875C47.9627 33.2997 48.2266 33.1903 48.4208 32.9957L51.1112 30.3053C52.2405 30.8427 53.3385 31.4434 54.4002 32.1045C54.5227 32.181 54.6595 32.2312 54.8026 32.2519L61.1751 33.1616V34.3373Z" fill="url(#paint13_linear)"/>
<path d="M81.3477 34.6602H77.0234L76.0303 38H74.3779L78.5 25.2031H79.8799L84.0107 38H82.3584L81.3477 34.6602ZM77.4453 33.2715H80.9346L79.1855 27.4531L77.4453 33.2715Z" fill="url(#paint14_linear)"/>
<path d="M85.751 38V25.2031H89.3984C90.5645 25.2031 91.4404 25.4873 92.0264 26.0557C92.6182 26.624 92.9141 27.4766 92.9141 28.6133C92.9141 29.2109 92.7646 29.7383 92.4658 30.1953C92.167 30.6523 91.7627 31.0068 91.2529 31.2588C91.8389 31.4346 92.3018 31.7949 92.6416 32.3398C92.9873 32.8848 93.1602 33.541 93.1602 34.3086C93.1602 35.457 92.8438 36.3594 92.2109 37.0156C91.584 37.6719 90.6875 38 89.5215 38H85.751ZM87.3594 32.0146V36.6201H89.5566C90.166 36.6201 90.6494 36.4209 91.0068 36.0225C91.3643 35.6182 91.543 35.0527 91.543 34.3262C91.543 32.7852 90.8926 32.0146 89.5918 32.0146H87.3594ZM87.3594 30.6611H89.4248C89.9814 30.6611 90.4297 30.4736 90.7695 30.0986C91.1152 29.7236 91.2881 29.2256 91.2881 28.6045C91.2881 27.9014 91.1328 27.3916 90.8223 27.0752C90.5117 26.7529 90.0371 26.5918 89.3984 26.5918H87.3594V30.6611Z" fill="url(#paint15_linear)"/>
<path d="M102.811 26.5918H99.4443V38H97.8359V26.5918H94.4785V25.2031H102.811V26.5918Z" fill="url(#paint16_linear)"/>
<path d="M112.777 32.7266C112.777 34.4727 112.405 35.8174 111.661 36.7607C110.917 37.7041 109.859 38.1758 108.488 38.1758C107.17 38.1758 106.127 37.7188 105.359 36.8047C104.598 35.8848 104.202 34.5869 104.173 32.9111V30.5029C104.173 28.792 104.551 27.4531 105.307 26.4863C106.062 25.5137 107.117 25.0273 108.471 25.0273C109.818 25.0273 110.867 25.4932 111.617 26.4248C112.373 27.3506 112.76 28.6748 112.777 30.3975V32.7266ZM111.169 30.4854C111.169 29.1318 110.946 28.127 110.501 27.4707C110.062 26.8086 109.385 26.4775 108.471 26.4775C107.586 26.4775 106.915 26.8115 106.458 27.4795C106.007 28.1475 105.778 29.1318 105.772 30.4326V32.7266C105.772 34.0332 105.998 35.0293 106.449 35.7148C106.906 36.4004 107.586 36.7432 108.488 36.7432C109.391 36.7432 110.059 36.4268 110.492 35.7939C110.926 35.1611 111.151 34.1914 111.169 32.8848V30.4854Z" fill="url(#paint17_linear)"/>
<path d="M120.644 28.6396C120.644 27.9541 120.447 27.4121 120.055 27.0137C119.668 26.6152 119.129 26.416 118.438 26.416C117.852 26.416 117.362 26.6211 116.97 27.0312C116.583 27.4414 116.39 27.9541 116.39 28.5693H114.781C114.781 27.5205 115.13 26.668 115.827 26.0117C116.524 25.3555 117.395 25.0273 118.438 25.0273C119.65 25.0273 120.591 25.3496 121.259 25.9941C121.927 26.6387 122.261 27.5293 122.261 28.666C122.261 29.2578 122.105 29.7969 121.795 30.2832C121.484 30.7695 121.057 31.1533 120.512 31.4346C121.783 31.9443 122.419 32.9434 122.419 34.4316C122.419 35.5918 122.053 36.5059 121.32 37.1738C120.594 37.8418 119.633 38.1758 118.438 38.1758C117.922 38.1758 117.424 38.0938 116.943 37.9297C116.469 37.7598 116.053 37.5049 115.695 37.165C114.98 36.4912 114.623 35.5859 114.623 34.4492H116.231C116.231 35.1172 116.437 35.6768 116.847 36.1279C117.263 36.5791 117.793 36.8047 118.438 36.8047C119.158 36.8047 119.732 36.5938 120.16 36.1719C120.594 35.7441 120.811 35.1758 120.811 34.4668C120.811 32.9785 120.099 32.2139 118.675 32.1729H117.356V30.7842H118.561C119.24 30.7842 119.756 30.5996 120.107 30.2305C120.465 29.8613 120.644 29.3311 120.644 28.6396Z" fill="url(#paint18_linear)"/>
<path d="M130.549 34.6602H126.225L125.231 38H123.579L127.701 25.2031H129.081L133.212 38H131.56L130.549 34.6602ZM126.646 33.2715H130.136L128.387 27.4531L126.646 33.2715Z" fill="url(#paint19_linear)"/>
<path d="M136.648 25.2031V36.6201H140.12V25.2031H141.72V36.6201H145.165V25.2031H146.782V36.6729H147.89L147.731 41.085H146.36V38H135.031V25.2031H136.648Z" fill="url(#paint20_linear)"/>
<path d="M156.775 25.2031H158.384V38H156.775V28.1387L151.792 38H150.175V25.2031H151.792V35.0645L156.775 25.2031Z" fill="url(#paint21_linear)"/>
<path d="M168.465 26.5918H165.099V38H163.49V26.5918H160.133V25.2031H168.465V26.5918Z" fill="url(#paint22_linear)"/>
<path d="M175.619 34.6602H171.295L170.302 38H168.649L172.771 25.2031H174.151L178.282 38H176.63L175.619 34.6602ZM171.717 33.2715H175.206L173.457 27.4531L171.717 33.2715Z" fill="url(#paint23_linear)"/>
<defs>
<linearGradient id="paint0_linear" x1="6" y1="2.1849" x2="58.9976" y2="4.05971" gradientUnits="userSpaceOnUse">
<stop stop-color="#EB5D56"/>
<stop offset="1" stop-color="#390A40"/>
</linearGradient>
<linearGradient id="paint1_linear" x1="14.8" y1="49.3983" x2="49.3063" y2="51.282" gradientUnits="userSpaceOnUse">
<stop stop-color="#EB5D56"/>
<stop offset="1" stop-color="#390A40"/>
</linearGradient>
<linearGradient id="paint2_linear" x1="18.285" y1="47.2045" x2="45.1449" y2="48.6121" gradientUnits="userSpaceOnUse">
<stop stop-color="#EB5D56"/>
<stop offset="1" stop-color="#390A40"/>
</linearGradient>
<linearGradient id="paint3_linear" x1="9.9942" y1="6.93322" x2="54.8343" y2="8.66836" gradientUnits="userSpaceOnUse">
<stop stop-color="#EB5D56"/>
<stop offset="1" stop-color="#390A40"/>
</linearGradient>
<linearGradient id="paint4_linear" x1="31" y1="12.0124" x2="33.04" y2="12.054" gradientUnits="userSpaceOnUse">
<stop stop-color="#EB5D56"/>
<stop offset="1" stop-color="#390A40"/>
</linearGradient>
<linearGradient id="paint5_linear" x1="14" y1="17.0124" x2="16.04" y2="17.054" gradientUnits="userSpaceOnUse">
<stop stop-color="#EB5D56"/>
<stop offset="1" stop-color="#390A40"/>
</linearGradient>
<linearGradient id="paint6_linear" x1="48" y1="17.0124" x2="50.04" y2="17.054" gradientUnits="userSpaceOnUse">
<stop stop-color="#EB5D56"/>
<stop offset="1" stop-color="#390A40"/>
</linearGradient>
<linearGradient id="paint7_linear" x1="31" y1="50.0124" x2="33.04" y2="50.054" gradientUnits="userSpaceOnUse">
<stop stop-color="#EB5D56"/>
<stop offset="1" stop-color="#390A40"/>
</linearGradient>
<linearGradient id="paint8_linear" x1="23" y1="15.0124" x2="25.04" y2="15.054" gradientUnits="userSpaceOnUse">
<stop stop-color="#EB5D56"/>
<stop offset="1" stop-color="#390A40"/>
</linearGradient>
<linearGradient id="paint9_linear" x1="39" y1="15.0124" x2="41.04" y2="15.054" gradientUnits="userSpaceOnUse">
<stop stop-color="#EB5D56"/>
<stop offset="1" stop-color="#390A40"/>
</linearGradient>
<linearGradient id="paint10_linear" x1="24" y1="47.0124" x2="26.04" y2="47.054" gradientUnits="userSpaceOnUse">
<stop stop-color="#EB5D56"/>
<stop offset="1" stop-color="#390A40"/>
</linearGradient>
<linearGradient id="paint11_linear" x1="38" y1="47.0124" x2="40.04" y2="47.054" gradientUnits="userSpaceOnUse">
<stop stop-color="#EB5D56"/>
<stop offset="1" stop-color="#390A40"/>
</linearGradient>
<linearGradient id="paint12_linear" x1="26.9375" y1="34.3501" x2="31.165" y2="34.5226" gradientUnits="userSpaceOnUse">
<stop stop-color="#EB5D56"/>
<stop offset="1" stop-color="#390A40"/>
</linearGradient>
<linearGradient id="paint13_linear" x1="1" y1="25.1539" x2="64.3555" y2="28.386" gradientUnits="userSpaceOnUse">
<stop stop-color="#EB5D56"/>
<stop offset="1" stop-color="#390A40"/>
</linearGradient>
<linearGradient id="paint14_linear" x1="74.3779" y1="25.1266" x2="178.585" y2="38.8878" gradientUnits="userSpaceOnUse">
<stop stop-color="#EB5D56"/>
<stop offset="1" stop-color="#390A40"/>
</linearGradient>
<linearGradient id="paint15_linear" x1="74.3779" y1="25.1266" x2="178.585" y2="38.8878" gradientUnits="userSpaceOnUse">
<stop stop-color="#EB5D56"/>
<stop offset="1" stop-color="#390A40"/>
</linearGradient>
<linearGradient id="paint16_linear" x1="74.3779" y1="25.1266" x2="178.585" y2="38.8878" gradientUnits="userSpaceOnUse">
<stop stop-color="#EB5D56"/>
<stop offset="1" stop-color="#390A40"/>
</linearGradient>
<linearGradient id="paint17_linear" x1="74.3779" y1="25.1266" x2="178.585" y2="38.8878" gradientUnits="userSpaceOnUse">
<stop stop-color="#EB5D56"/>
<stop offset="1" stop-color="#390A40"/>
</linearGradient>
<linearGradient id="paint18_linear" x1="74.3779" y1="25.1266" x2="178.585" y2="38.8878" gradientUnits="userSpaceOnUse">
<stop stop-color="#EB5D56"/>
<stop offset="1" stop-color="#390A40"/>
</linearGradient>
<linearGradient id="paint19_linear" x1="74.3779" y1="25.1266" x2="178.585" y2="38.8878" gradientUnits="userSpaceOnUse">
<stop stop-color="#EB5D56"/>
<stop offset="1" stop-color="#390A40"/>
</linearGradient>
<linearGradient id="paint20_linear" x1="74.3779" y1="25.1266" x2="178.585" y2="38.8878" gradientUnits="userSpaceOnUse">
<stop stop-color="#EB5D56"/>
<stop offset="1" stop-color="#390A40"/>
</linearGradient>
<linearGradient id="paint21_linear" x1="74.3779" y1="25.1266" x2="178.585" y2="38.8878" gradientUnits="userSpaceOnUse">
<stop stop-color="#EB5D56"/>
<stop offset="1" stop-color="#390A40"/>
</linearGradient>
<linearGradient id="paint22_linear" x1="74.3779" y1="25.1266" x2="178.585" y2="38.8878" gradientUnits="userSpaceOnUse">
<stop stop-color="#EB5D56"/>
<stop offset="1" stop-color="#390A40"/>
</linearGradient>
<linearGradient id="paint23_linear" x1="74.3779" y1="25.1266" x2="178.585" y2="38.8878" gradientUnits="userSpaceOnUse">
<stop stop-color="#EB5D56"/>
<stop offset="1" stop-color="#390A40"/>
</linearGradient>
</defs>
</svg>
