<svg width="17" height="17" viewBox="0 0 17 17" fill="none" xmlns="http://www.w3.org/2000/svg">
<path d="M16.9636 13.2432C16.9153 13.0975 16.6077 12.8829 16.0411 12.5999C15.8876 12.5107 15.6689 12.3895 15.3859 12.2357C15.1026 12.0819 14.8455 11.9402 14.615 11.8107C14.3841 11.6812 14.1677 11.5558 13.9655 11.4346C13.9332 11.4103 13.8321 11.3396 13.6621 11.222C13.492 11.1047 13.3485 11.0177 13.231 10.961C13.1137 10.9045 12.9983 10.8761 12.8849 10.8761C12.7231 10.8761 12.521 10.9915 12.2783 11.222C12.0356 11.4528 11.813 11.7035 11.6107 11.9748C11.4085 12.246 11.194 12.4967 10.9676 12.7274C10.7409 12.9581 10.5546 13.0734 10.4091 13.0734C9.12469 13.0734 7.32706 11.3023 6.51224 10.4878C5.63334 9.60852 3.92663 7.95131 3.92663 6.59104C3.92663 6.44546 4.04198 6.25923 4.27265 6.03261C4.50327 5.80612 4.75421 5.59157 5.02523 5.3894C5.29646 5.18723 5.54715 4.96461 5.77785 4.72192C6.00847 4.4791 6.12379 4.27689 6.12379 4.11507C6.12379 4.00184 6.09547 3.88641 6.03888 3.7691C5.98224 3.65154 5.89525 3.50808 5.77785 3.33806C5.66042 3.16811 5.58962 3.06705 5.5653 3.03452C5.44404 2.83235 5.31874 2.6159 5.1891 2.38524C5.05946 2.15462 4.91795 1.89756 4.76412 1.61435C4.61042 1.33127 4.48911 1.11269 4.39999 0.958942C4.1169 0.392565 3.90248 0.0849076 3.75677 0.0365226C3.70009 0.0122451 3.61505 0 3.50187 0C3.28324 0 2.99802 0.0403917 2.64601 0.12143C2.29387 0.202341 2.01677 0.287206 1.81442 0.376366C1.40977 0.546224 0.980888 1.03985 0.527638 1.85708C-0.71434 4.14573 0.458725 7.34206 1.75354 9.41952C3.17093 11.7169 5.28302 13.8288 7.58022 15.2464C9.65722 16.5409 12.855 17.7141 15.1429 16.4729C16.0377 15.9768 16.5756 15.4577 16.8345 14.5282C16.8502 14.4719 16.8649 14.414 16.8785 14.3545C16.9597 14.0025 17 13.7174 17 13.4988C17.0003 13.3851 16.988 13.3003 16.9636 13.2432Z" fill="url(#paint0_linear)"/>
<defs>
<linearGradient id="paint0_linear" x1="1.01541e-07" y1="0.105052" x2="17.3397" y2="0.458924" gradientUnits="userSpaceOnUse">
<stop stop-color="#EB5D56"/>
<stop offset="1" stop-color="#390A40"/>
</linearGradient>
</defs>
</svg>
