<svg width="52" height="52" viewBox="0 0 52 52" fill="none" xmlns="http://www.w3.org/2000/svg">
<path d="M27.7451 32.2674C28.5385 32.205 29.2619 31.7959 29.7314 31.1434L36.8679 21.1711C37.0867 20.8652 37.0539 20.443 36.7887 20.1749C36.5234 19.9076 36.1057 19.8745 35.8031 20.0948L25.9356 27.3105C25.2923 27.7836 24.8875 28.5147 24.8258 29.3167C24.7641 30.1187 25.0514 30.9038 25.6132 31.4716C26.1246 31.9893 26.8144 32.2759 27.5316 32.2759C27.6025 32.2759 27.6734 32.2728 27.7451 32.2674ZM26.3457 29.4369C26.3723 29.0848 26.5507 28.7635 26.8312 28.5571L32.8503 24.1557L28.4974 30.2381C28.2916 30.5239 27.9737 30.7035 27.6254 30.7312C27.2786 30.7543 26.9379 30.6326 26.6902 30.3822C26.4447 30.1333 26.3182 29.7882 26.3457 29.4369Z" fill="url(#paint0_linear)"/>
<path d="M44.8185 18.0724C44.8109 18.0563 44.8109 18.0393 44.8025 18.0231C44.7934 18.0077 44.7789 17.9992 44.769 17.9846C43.9984 16.6487 43.0868 15.406 42.0517 14.2797L43.6889 12.6256L44.7667 13.715L48 10.4461L44.7667 7.17797L41.5327 10.4461L42.6112 11.5362L40.974 13.1903C39.8596 12.1441 38.6309 11.2219 37.3085 10.443C37.294 10.433 37.2856 10.4183 37.2704 10.4091C37.2544 10.3999 37.2376 10.4006 37.2216 10.3921C34.8641 9.01927 32.2154 8.10478 29.3914 7.76965V6.85208H30.5347C31.5858 6.85208 32.4403 5.98845 32.4403 4.92604C32.4403 3.86364 31.5851 3 30.534 3H23.6741C22.623 3 21.7686 3.86364 21.7686 4.92604C21.7686 5.98845 22.623 6.85208 23.6741 6.85208H24.8174V7.74268C23.9942 7.83128 23.1726 7.96688 22.3601 8.15486C21.95 8.24962 21.6931 8.66333 21.7876 9.07782C21.8814 9.4923 22.2907 9.7527 22.7008 9.6564C23.402 9.49384 24.1101 9.37135 24.8197 9.28891L25.6376 9.22497C25.8876 9.20571 26.1178 9.19184 26.3418 9.18105V10.7042C26.3418 11.1302 26.6825 11.4746 27.104 11.4746C27.5256 11.4746 27.8663 11.1302 27.8663 10.7042V9.18645C30.7329 9.31973 33.4342 10.0978 35.8359 11.3783L35.0844 12.6934C34.874 13.0624 34.999 13.5331 35.3633 13.7458C35.483 13.8159 35.6141 13.849 35.7437 13.849C36.0074 13.849 36.2635 13.7111 36.4045 13.4638L37.1538 12.1518C39.5387 13.6811 41.5647 15.7288 43.0777 18.1395L41.7796 18.8968C41.416 19.1094 41.291 19.5801 41.5022 19.9492C41.6439 20.1965 41.8993 20.3344 42.163 20.3344C42.2926 20.3344 42.4237 20.3012 42.5433 20.2311L43.8444 19.4715C45.1288 21.9338 45.9009 24.7088 46.016 27.6526H44.5106C44.0891 27.6526 43.7484 27.9969 43.7484 28.423C43.7484 28.849 44.0891 29.1934 44.5106 29.1934H46.016C45.9009 32.1372 45.1288 34.9122 43.8444 37.3744L42.5433 36.6148C42.179 36.4022 41.7125 36.527 41.5022 36.8968C41.2918 37.2658 41.4168 37.7365 41.7811 37.9492L43.0792 38.7065C41.5662 41.1171 39.5402 43.1649 37.1553 44.6942L36.406 43.3822C36.1949 43.0124 35.7277 42.8868 35.3649 43.1002C34.9998 43.3128 34.8748 43.7843 35.0859 44.1526L35.8374 45.4677C33.4357 46.7481 30.7344 47.5262 27.8678 47.6595V46.1433C27.8678 45.7173 27.5271 45.3729 27.1056 45.3729C26.6841 45.3729 26.3434 45.7173 26.3434 46.1433V47.6657C25.1261 47.6233 23.9051 47.4692 22.7031 47.1903C22.293 47.0909 21.8837 47.3544 21.7899 47.7689C21.6954 48.1834 21.9523 48.5971 22.3624 48.6919C23.8837 49.0463 25.4379 49.225 26.9798 49.225C27.0172 49.225 27.053 49.2227 27.0903 49.2219C27.0957 49.2219 27.0995 49.225 27.104 49.225C27.1101 49.225 27.1155 49.2211 27.1216 49.2211C30.7855 49.1957 34.2231 48.1957 37.1972 46.4684C37.2208 46.4577 37.246 46.4523 37.2689 46.4384C37.2841 46.4292 37.2925 46.4145 37.307 46.4045C40.3855 44.5909 42.958 41.9939 44.756 38.8845C44.7705 38.8637 44.7888 38.8475 44.8018 38.8244C44.8109 38.8082 44.8102 38.7912 44.8178 38.7751C46.5587 35.7242 47.5594 32.1911 47.5594 28.4237C47.5594 24.6564 46.5587 21.1233 44.8185 18.0724ZM44.7659 9.35671L45.8437 10.4461L44.7659 11.5362L43.6874 10.4461L44.7659 9.35671ZM26.3418 7.63868V5.31125H23.6741C23.4645 5.31125 23.293 5.13791 23.293 4.92604C23.293 4.71418 23.4645 4.54083 23.6741 4.54083H30.534C30.7436 4.54083 30.9151 4.71418 30.9151 4.92604C30.9151 5.13791 30.7436 5.31125 30.534 5.31125H27.8663V7.63868C27.601 7.62789 27.348 7.6225 27.104 7.6225C27.0827 7.6225 27.0583 7.62404 27.037 7.62404C27.0179 7.62404 26.9989 7.6225 26.9798 7.6225C26.8548 7.6225 26.7298 7.63097 26.6048 7.63329C26.5164 7.6356 26.4333 7.63483 26.3418 7.63868Z" fill="url(#paint1_linear)"/>
<path d="M20.2442 13.7858H16.4331C16.0116 13.7858 15.6709 14.1302 15.6709 14.5562C15.6709 14.9822 16.0116 15.3266 16.4331 15.3266H20.2442C20.6657 15.3266 21.0064 14.9822 21.0064 14.5562C21.0064 14.1302 20.6657 13.7858 20.2442 13.7858Z" fill="url(#paint2_linear)"/>
<path d="M20.2442 19.1788H12.6221C12.2006 19.1788 11.8599 19.5231 11.8599 19.9492C11.8599 20.3752 12.2006 20.7196 12.6221 20.7196H20.2442C20.6657 20.7196 21.0064 20.3752 21.0064 19.9492C21.0064 19.5231 20.6657 19.1788 20.2442 19.1788Z" fill="url(#paint3_linear)"/>
<path d="M20.2442 24.5717H8.81104C8.38954 24.5717 8.04883 24.9161 8.04883 25.3421C8.04883 25.7682 8.38954 26.1125 8.81104 26.1125H20.2442C20.6657 26.1125 21.0064 25.7682 21.0064 25.3421C21.0064 24.9161 20.6657 24.5717 20.2442 24.5717Z" fill="url(#paint4_linear)"/>
<path d="M20.2442 29.9645H5.76221C5.34071 29.9645 5 30.3089 5 30.735C5 31.161 5.34071 31.5054 5.76221 31.5054H20.2442C20.6657 31.5054 21.0064 31.161 21.0064 30.735C21.0064 30.3089 20.6657 29.9645 20.2442 29.9645Z" fill="url(#paint5_linear)"/>
<path d="M20.2442 35.3575H10.3355C9.91395 35.3575 9.57324 35.7019 9.57324 36.1279C9.57324 36.554 9.91395 36.8983 10.3355 36.8983H20.2442C20.6657 36.8983 21.0064 36.554 21.0064 36.1279C21.0064 35.7019 20.6657 35.3575 20.2442 35.3575Z" fill="url(#paint6_linear)"/>
<path d="M20.2442 40.7505H14.9087C14.4872 40.7505 14.1465 41.0948 14.1465 41.5209C14.1465 41.9469 14.4872 42.2913 14.9087 42.2913H20.2442C20.6657 42.2913 21.0064 41.9469 21.0064 41.5209C21.0064 41.0948 20.6657 40.7505 20.2442 40.7505Z" fill="url(#paint7_linear)"/>
<defs>
<linearGradient id="paint0_linear" x1="24.8176" y1="20.0257" x2="37.256" y2="20.2768" gradientUnits="userSpaceOnUse">
<stop stop-color="#EB5D56"/>
<stop offset="1" stop-color="#390A40"/>
</linearGradient>
<linearGradient id="paint1_linear" x1="21.7681" y1="3.28565" x2="48.5318" y2="3.59561" gradientUnits="userSpaceOnUse">
<stop stop-color="#EB5D56"/>
<stop offset="1" stop-color="#390A40"/>
</linearGradient>
<linearGradient id="paint2_linear" x1="15.6709" y1="13.7953" x2="21.0882" y2="14.1781" gradientUnits="userSpaceOnUse">
<stop stop-color="#EB5D56"/>
<stop offset="1" stop-color="#390A40"/>
</linearGradient>
<linearGradient id="paint3_linear" x1="11.8599" y1="19.1883" x2="21.0581" y2="20.3026" gradientUnits="userSpaceOnUse">
<stop stop-color="#EB5D56"/>
<stop offset="1" stop-color="#390A40"/>
</linearGradient>
<linearGradient id="paint4_linear" x1="8.04883" y1="24.5812" x2="20.8925" y2="26.7855" gradientUnits="userSpaceOnUse">
<stop stop-color="#EB5D56"/>
<stop offset="1" stop-color="#390A40"/>
</linearGradient>
<linearGradient id="paint5_linear" x1="5" y1="29.9741" x2="20.6305" y2="33.2878" gradientUnits="userSpaceOnUse">
<stop stop-color="#EB5D56"/>
<stop offset="1" stop-color="#390A40"/>
</linearGradient>
<linearGradient id="paint6_linear" x1="9.57324" y1="35.367" x2="20.9782" y2="37.0941" gradientUnits="userSpaceOnUse">
<stop stop-color="#EB5D56"/>
<stop offset="1" stop-color="#390A40"/>
</linearGradient>
<linearGradient id="paint7_linear" x1="14.1465" y1="40.76" x2="21.0891" y2="41.3908" gradientUnits="userSpaceOnUse">
<stop stop-color="#EB5D56"/>
<stop offset="1" stop-color="#390A40"/>
</linearGradient>
</defs>
</svg>
